<svg width="1600" height="1200" viewBox="0 0 1600 1200" fill="none" xmlns="http://www.w3.org/2000/svg">
  <rect width="1600" height="1200" fill="#EFE7DB"/>
  <rect y="760" width="1600" height="440" fill="#D9C7B0"/>
  <rect x="120" y="120" width="980" height="650" rx="28" fill="#F8F4EE"/>
  <rect x="160" y="170" width="900" height="60" fill="#A06D44"/>
  <rect x="160" y="270" width="190" height="430" fill="#BD9166"/>
  <rect x="390" y="270" width="190" height="430" fill="#C89D73"/>
  <rect x="620" y="270" width="190" height="430" fill="#BD9166"/>
  <rect x="850" y="270" width="210" height="430" fill="#C89D73"/>
  <rect x="1150" y="180" width="290" height="720" rx="26" fill="#536C58"/>
  <rect x="1210" y="250" width="32" height="470" fill="#243228"/>
  <rect x="1288" y="210" width="40" height="530" fill="#2D3D31"/>
  <rect x="1380" y="260" width="28" height="490" fill="#243228"/>
  <path d="M230 930C290 840 350 830 430 860C510 890 560 880 650 820C720 770 820 770 900 840C980 910 1030 920 1090 900C1150 880 1230 820 1320 830C1410 840 1480 900 1520 960V1200H230V930Z" fill="#7A8F72"/>
  <circle cx="1090" cy="250" r="90" fill="#FFF4D8" fill-opacity="0.75"/>
  <rect x="520" y="720" width="290" height="280" rx="24" fill="#FFFCF7"/>
  <circle cx="650" cy="820" r="56" fill="#37483B"/>
  <rect x="604" y="870" width="92" height="96" rx="20" fill="#37483B"/>
  <rect x="702" y="854" width="34" height="112" rx="16" fill="#37483B"/>
  <rect x="564" y="854" width="34" height="112" rx="16" fill="#37483B"/>
</svg>
